<svg width="44" height="44" viewBox="0 0 44 44" fill="none" xmlns="http://www.w3.org/2000/svg">
<path d="M9.16667 16.5V31.1666M17.4167 16.5V31.1666M26.5833 16.5V31.1666M34.8333 16.5V31.1666M5.5 34.1L5.5 35.5666C5.5 36.5934 5.5 37.1068 5.69982 37.4989C5.87559 37.8439 6.15605 38.1244 6.50102 38.3001C6.89319 38.5 7.40657 38.5 8.43333 38.5H35.5667C36.5934 38.5 37.1068 38.5 37.499 38.3001C37.8439 38.1244 38.1244 37.8439 38.3002 37.4989C38.5 37.1068 38.5 36.5934 38.5 35.5666V34.1C38.5 33.0732 38.5 32.5598 38.3002 32.1676C38.1244 31.8227 37.8439 31.5422 37.499 31.3664C37.1068 31.1666 36.5934 31.1666 35.5667 31.1666H8.43333C7.40657 31.1666 6.89319 31.1666 6.50102 31.3664C6.15605 31.5422 5.87559 31.8227 5.69982 32.1676C5.5 32.5598 5.5 33.0732 5.5 34.1ZM21.3637 5.64136L7.797 8.65618C6.97739 8.83831 6.56759 8.92938 6.26169 9.14976C5.99187 9.34415 5.78 9.60826 5.64877 9.91383C5.5 10.2603 5.5 10.6801 5.5 11.5197L5.5 13.5666C5.5 14.5934 5.5 15.1068 5.69982 15.4989C5.87559 15.8439 6.15605 16.1244 6.50102 16.3001C6.89319 16.5 7.40657 16.5 8.43333 16.5H35.5667C36.5934 16.5 37.1068 16.5 37.499 16.3001C37.8439 16.1244 38.1244 15.8439 38.3002 15.4989C38.5 15.1068 38.5 14.5934 38.5 13.5666V11.5197C38.5 10.6801 38.5 10.2603 38.3512 9.91383C38.22 9.60827 38.0081 9.34415 37.7383 9.14976C37.4324 8.92938 37.0226 8.83831 36.203 8.65618L22.6363 5.64136C22.3989 5.58859 22.2801 5.56221 22.1602 5.55169C22.0536 5.54234 21.9464 5.54234 21.8398 5.55169C21.7199 5.56221 21.6011 5.58859 21.3637 5.64136Z" stroke="#9D6219" stroke-width="2.5" stroke-linecap="round" stroke-linejoin="round"/>
</svg>
