<svg width="44" height="44" viewBox="0 0 44 44" fill="none" xmlns="http://www.w3.org/2000/svg">
<path d="M24.8044 15.3117C23.755 16.0599 22.4707 16.5 21.0837 16.5C17.5398 16.5 14.667 13.6271 14.667 10.0833C14.667 6.53947 17.5398 3.66663 21.0837 3.66663C23.3808 3.66663 25.396 4.87372 26.5296 6.68822M11.0003 36.8264H15.7859C16.4098 36.8264 17.0299 36.9007 17.6348 37.0491L22.6913 38.2779C23.7885 38.5452 24.9314 38.5712 26.04 38.3559L31.6308 37.2682C33.1077 36.9805 34.4662 36.2733 35.531 35.2375L39.4865 31.3898C40.6161 30.2928 40.6161 28.5127 39.4865 27.4139C38.4694 26.4246 36.859 26.3132 35.7084 27.1522L31.0984 30.5155C30.4382 30.9981 29.6349 31.258 28.8087 31.258H24.3571L27.1906 31.2579C28.7877 31.2579 30.0814 29.9994 30.0814 28.4458V27.8834C30.0814 26.5934 29.1789 25.4686 27.8928 25.1567L23.5194 24.0932C22.8077 23.9205 22.0788 23.8333 21.3461 23.8333C19.5773 23.8333 16.3755 25.2978 16.3755 25.2978L11.0003 27.5456M36.667 11.9166C36.667 15.4605 33.7942 18.3333 30.2503 18.3333C26.7065 18.3333 23.8337 15.4605 23.8337 11.9166C23.8337 8.3728 26.7065 5.49996 30.2503 5.49996C33.7942 5.49996 36.667 8.3728 36.667 11.9166ZM3.66699 26.7666L3.66699 37.4C3.66699 38.4267 3.66699 38.9401 3.86681 39.3323C4.04258 39.6772 4.32305 39.9577 4.66801 40.1335C5.06018 40.3333 5.57356 40.3333 6.60032 40.3333H8.06699C9.09375 40.3333 9.60714 40.3333 9.99931 40.1335C10.3443 39.9577 10.6247 39.6772 10.8005 39.3323C11.0003 38.9401 11.0003 38.4267 11.0003 37.4V26.7666C11.0003 25.7399 11.0003 25.2265 10.8005 24.8343C10.6247 24.4893 10.3443 24.2089 9.99931 24.0331C9.60714 23.8333 9.09376 23.8333 8.06699 23.8333L6.60033 23.8333C5.57356 23.8333 5.06018 23.8333 4.66801 24.0331C4.32305 24.2089 4.04258 24.4893 3.86681 24.8343C3.66699 25.2265 3.66699 25.7399 3.66699 26.7666Z" stroke="#9D6219" stroke-width="2.5" stroke-linecap="round" stroke-linejoin="round"/>
</svg>
