<svg width="40" height="41" viewBox="0 0 40 41" fill="none" xmlns="http://www.w3.org/2000/svg">
<path d="M37.667 14C38.528 16.1665 39 18.529 39 21C39 31.491 30.4954 40 20 40C9.5046 40 1 31.491 1 21C1 10.509 9.5046 2 20 2C22.8596 2 25.5691 2.63078 28 3.76155" stroke="#9D6219" stroke-width="2" stroke-miterlimit="10"/>
<path d="M31.0106 14.8486C32.0322 16.6691 32.6128 18.7647 32.6128 21C32.6128 27.9635 26.9635 33.6129 20 33.6129C13.0365 33.6129 7.38718 27.9635 7.38718 21C7.38718 14.0366 13.0322 8.38721 20 8.38721C22.1785 8.38721 24.2305 8.94167 26.0204 9.91087" stroke="#9D6219" stroke-width="2" stroke-miterlimit="10"/>
<path d="M25.92 19.2537C26.0816 19.8082 26.1689 20.3932 26.1689 21.0001C26.1689 24.4054 23.4053 27.169 20 27.169C16.5947 27.169 13.8311 24.4054 13.8311 21.0001C13.8311 17.5947 16.5947 14.8312 20 14.8312C20.5588 14.8312 21.0958 14.9054 21.611 15.0451" stroke="#9D6219" stroke-width="2" stroke-miterlimit="10"/>
<path d="M20 21L28.8582 12.0806L28.6749 8.44393L33.7872 3.20496L34.0361 6.84167L37.7339 7.21277L32.7394 12.3295L28.8582 12.0806" fill="#9D6219"/>
<path d="M20 21L28.8582 12.0806L28.6749 8.44393L33.7872 3.20496L34.0361 6.84167L37.7339 7.21277L32.7394 12.3295L28.8582 12.0806" stroke="#9D6219" stroke-width="2" stroke-miterlimit="10"/>
</svg>
