<svg width="92" height="92" viewBox="0 0 92 92" fill="none" xmlns="http://www.w3.org/2000/svg">
<path d="M35.2487 64.3346V39.6012H27.0349V64.3346H35.2495H35.2487ZM31.1435 36.2248C34.0072 36.2248 35.79 34.3256 35.79 31.9521C35.7364 29.5245 34.0072 27.6782 31.198 27.6782C28.3868 27.6782 26.5508 29.5245 26.5508 31.9518C26.5508 34.3254 28.333 36.2246 31.0897 36.2246H31.1429L31.1435 36.2248ZM39.7951 64.3346H48.0081V50.5238C48.0081 49.7856 48.0618 49.0454 48.2787 48.5182C48.8722 47.0406 50.2237 45.5111 52.4932 45.5111C55.4646 45.5111 56.6539 47.7791 56.6539 51.1043V64.3346H64.8668V50.1532C64.8668 42.5565 60.8152 39.0213 55.4114 39.0213C50.981 39.0213 49.0352 41.4998 47.9541 43.1878H48.0088V39.602H39.7955C39.9027 41.9223 39.7949 64.3355 39.7949 64.3355L39.7951 64.3346Z" fill="white"/>
</svg>
