<svg width="92" height="92" viewBox="0 0 92 92" fill="none" xmlns="http://www.w3.org/2000/svg">
<path fill-rule="evenodd" clip-rule="evenodd" d="M45.7948 22.9883C33.1975 22.9883 22.8906 33.3043 22.8906 45.9128C22.8906 58.5213 33.1975 68.8374 45.7948 68.8374C58.3921 68.8374 68.699 58.5213 68.699 45.9128C68.699 33.3043 58.5066 22.9883 45.7948 22.9883ZM56.3307 56.1142C55.8727 56.802 55.071 57.0312 54.3839 56.5727C49.0014 53.2487 42.2447 52.5609 34.2282 54.3949C33.4265 54.6242 32.7394 54.051 32.5104 53.3633C32.2813 52.5609 32.8539 51.8732 33.5411 51.644C42.2447 49.6954 49.803 50.4977 55.7581 54.1657C56.5598 54.5095 56.6743 55.4265 56.3307 56.1142ZM59.0792 49.81C58.5066 50.6124 57.4759 50.9562 56.6743 50.3831C50.4902 46.6006 41.0995 45.4543 33.8846 47.7468C32.9685 47.976 31.9378 47.5175 31.7087 46.6006C31.4797 45.6836 31.9378 44.652 32.8539 44.4227C41.214 41.901 51.5209 43.1619 58.6212 47.5175C59.3083 47.8614 59.6518 49.0076 59.0792 49.81ZM59.3083 43.3911C51.9789 39.0355 39.7252 38.577 32.7394 40.7548C31.5942 41.0987 30.449 40.4109 30.1054 39.3793C29.7619 38.2331 30.449 37.0869 31.4797 36.743C39.6107 34.3359 53.0096 34.7944 61.4842 39.8378C62.5149 40.4109 62.8584 41.7864 62.2858 42.818C61.7132 43.6204 60.339 43.9642 59.3083 43.3911Z" fill="white"/>
</svg>
