<svg width="68" height="68" viewBox="0 0 68 68" fill="none" xmlns="http://www.w3.org/2000/svg">
<path d="M29.3387 51.6828C41.676 51.6828 51.6773 41.6802 51.6773 29.3414C51.6773 17.0026 41.676 7 29.3387 7C17.0014 7 7 17.0026 7 29.3414C7 41.6802 17.0014 51.6828 29.3387 51.6828Z" stroke="#9D6219" stroke-width="2" stroke-miterlimit="10"/>
<path d="M29.3387 46.6776C38.912 46.6776 46.6727 38.916 46.6727 29.3415C46.6727 19.767 38.912 12.0054 29.3387 12.0054C19.7653 12.0054 12.0046 19.767 12.0046 29.3415C12.0046 38.916 19.7653 46.6776 29.3387 46.6776Z" stroke="#9D6219" stroke-width="2" stroke-miterlimit="10"/>
<path d="M47.7777 41.3193L61.6056 55.1489L56.1555 60.6055L42.5012 46.9437" stroke="#9D6219" stroke-width="2" stroke-miterlimit="10"/>
<path d="M19.5088 30.2035C21.4196 30.2035 22.9686 28.6543 22.9686 26.7432C22.9686 24.8322 21.4196 23.283 19.5088 23.283C17.5979 23.283 16.0489 24.8322 16.0489 26.7432C16.0489 28.6543 17.5979 30.2035 19.5088 30.2035Z" fill="#9D6219"/>
<path d="M28.494 40.3876C30.4048 40.3876 31.9538 38.8384 31.9538 36.9273C31.9538 35.0163 30.4048 33.467 28.494 33.467C26.5832 33.467 25.0341 35.0163 25.0341 36.9273C25.0341 38.8384 26.5832 40.3876 28.494 40.3876Z" fill="#9D6219"/>
<path d="M38.4049 29.1679C40.3157 29.1679 41.8647 27.6187 41.8647 25.7076C41.8647 23.7965 40.3157 22.2473 38.4049 22.2473C36.494 22.2473 34.945 23.7965 34.945 25.7076C34.945 27.6187 36.494 29.1679 38.4049 29.1679Z" fill="#9D6219"/>
<path d="M53.5288 14.7365C55.4396 14.7365 56.9886 13.1873 56.9886 11.2762C56.9886 9.36514 55.4396 7.81592 53.5288 7.81592C51.6179 7.81592 50.0689 9.36514 50.0689 11.2762C50.0689 13.1873 51.6179 14.7365 53.5288 14.7365Z" fill="#9D6219"/>
<path d="M47.6216 16.4898L53.3263 10.7844H61.6057" stroke="#9D6219" stroke-width="2" stroke-miterlimit="10"/>
<path d="M44.0112 20.1006L38.4049 25.7076L28.5518 37.3615L19.8385 26.7955H12.1898H11.9988" stroke="#9D6219" stroke-width="2" stroke-miterlimit="10"/>
<path d="M45.4056 50.2825L51.0409 44.6465" stroke="#9D6219" stroke-width="2" stroke-miterlimit="10"/>
</svg>
