<svg width="68" height="68" viewBox="0 0 68 68" fill="none" xmlns="http://www.w3.org/2000/svg">
<path d="M49.2307 33.7561V28.1096H7V45.8278C7 54.4908 14.0192 61.51 22.6765 61.51H33.5542C39.5987 61.51 44.8357 58.0898 47.4543 53.0778" stroke="#9D6219" stroke-width="2" stroke-miterlimit="10"/>
<path d="M44.5877 28.1153V23.3974C44.5877 14.3768 37.2051 7 28.1903 7C19.1755 7 11.7871 14.3768 11.7871 23.3974V28.1153" stroke="#9D6219" stroke-width="2" stroke-miterlimit="10"/>
<path d="M31.5702 40.5043C31.5702 38.5952 30.0244 37.0437 28.1096 37.0437C26.1947 37.0437 24.649 38.5894 24.649 40.5043C24.649 41.6001 25.1681 42.5633 25.9582 43.1978L24.8393 50.2285H31.3683L30.2494 43.1978C31.0453 42.5633 31.5586 41.6001 31.5586 40.5043H31.5702Z" fill="#9D6219"/>
<path d="M51.6992 54.8714C51.6992 54.8714 60.7429 52.2818 61.2908 43.1747C61.4235 40.983 61.2908 34.4021 61.2908 34.4021C61.2908 34.4021 55.8808 36.6342 51.4628 31.9912C47.039 36.6284 41.577 34.4021 41.577 34.4021C41.577 34.4021 41.4444 40.983 41.577 43.1747C42.1192 52.2818 51.4109 54.8714 51.4109 54.8714H51.6992Z" stroke="#9D6219" stroke-width="2" stroke-miterlimit="2.82384"/>
<path d="M48.4174 43.3535L50.8341 45.5972L55.6616 40.4236" stroke="#9D6219" stroke-width="2" stroke-miterlimit="10"/>
</svg>
