<svg width="92" height="92" viewBox="0 0 92 92" fill="none" xmlns="http://www.w3.org/2000/svg">
<path d="M51.2102 53.6518C51.1211 52.849 50.8537 52.2692 50.319 51.734C49.3164 50.6859 47.5563 49.9946 45.4842 49.9946C43.4122 49.9946 41.6521 50.6636 40.6495 51.734C40.137 52.2915 39.8474 52.849 39.7583 53.6518C39.58 55.2128 39.6914 56.5508 39.8697 58.7139C40.0479 60.7655 40.3821 63.5083 40.8054 66.2735C41.1173 68.2582 41.3624 69.3286 41.5852 70.0868C41.964 71.3356 43.3231 72.406 45.4842 72.406C47.6454 72.406 49.0268 71.3133 49.3832 70.0868C49.606 69.3286 49.8511 68.2582 50.163 66.2735C50.5864 63.486 50.9206 60.7655 51.0988 58.7139C51.2993 56.5508 51.3884 55.2128 51.2102 53.6518Z" fill="white"/>
<path d="M50.9618 42.2782C50.9618 45.311 48.511 47.764 45.4809 47.764C42.4508 47.764 40 45.311 40 42.2782C40 39.2455 42.4508 36.7925 45.4809 36.7925C48.511 36.7925 50.9618 39.2678 50.9618 42.2782Z" fill="white"/>
<path d="M45.4172 20.67C32.6284 20.7146 22.1568 31.1063 21.9786 43.9064C21.8449 54.2758 28.462 63.1512 37.7083 66.4069C37.9311 66.4961 38.1539 66.2954 38.1316 66.0724C38.0202 65.2696 37.8865 64.4668 37.7974 63.6641C37.7528 63.3742 37.5746 63.1512 37.3295 63.0174C30.0216 59.8285 24.9195 52.4918 25.0086 43.9956C25.12 32.8457 34.2103 23.7696 45.328 23.6804C56.7131 23.5912 66.0039 32.8234 66.0039 44.1963C66.0039 52.6033 60.9241 59.8285 53.683 63.0174C53.4157 63.1289 53.2374 63.3742 53.2152 63.6641C53.1038 64.4668 52.9924 65.2696 52.881 66.0724C52.8364 66.3177 53.0815 66.4961 53.3043 66.4069C62.4614 63.1958 69.034 54.4542 69.034 44.1963C68.9894 31.2178 58.4064 20.6477 45.4172 20.67Z" fill="white"/>
<path d="M44.8793 28.4746C36.5466 28.7868 29.8626 35.6775 29.7512 44.0176C29.6844 49.5034 32.4248 54.3647 36.6357 57.2414C36.8362 57.3752 37.1259 57.2191 37.1259 56.9738C37.059 56.0149 37.059 55.1675 37.1036 54.2755C37.1259 53.9856 37.0145 53.718 36.7917 53.5173C34.2295 51.109 32.6699 47.6748 32.759 43.8838C32.9372 37.1939 38.3067 31.7527 44.9907 31.4851C52.254 31.1952 58.2251 37.0378 58.2251 44.2183C58.2251 47.8755 56.6655 51.1759 54.1924 53.5173C53.9919 53.718 53.8805 53.9856 53.8805 54.2755C53.925 55.1452 53.9028 55.9926 53.8582 56.9515C53.8359 57.1968 54.1256 57.3752 54.3484 57.2191C58.4924 54.387 61.2329 49.5926 61.2329 44.196C61.2552 35.3207 53.8359 28.1178 44.8793 28.4746Z" fill="white"/>
</svg>
