<svg width="68" height="68" viewBox="0 0 68 68" fill="none" xmlns="http://www.w3.org/2000/svg">
<g clip-path="url(#clip0_312_65)">
<path d="M7.40625 37.6876L1 39.5779L8.29124 64.2877L14.6975 62.3974L7.40625 37.6876Z" fill="#9D6219"/>
<path d="M8.16193 41.0912L17.3832 34.0989L42.8257 40.9309L39.9631 48.6636L24.6961 44.8469" stroke="#9D6219" stroke-width="2" stroke-miterlimit="10"/>
<path d="M13.1313 58.923L18.971 56.1979L35.3525 60.3352L67.9476 40.7782L62.3827 32.9844L41.1234 45.7705" stroke="#9D6219" stroke-width="2" stroke-miterlimit="10"/>
<path d="M34.6654 18.2365L37.8639 21.1983L44.2531 14.3511" stroke="#9D6219" stroke-width="2" stroke-miterlimit="10"/>
<path d="M52.0927 20.2288C52.2454 19.4426 52.3294 18.6334 52.3294 17.8014C52.3294 16.9693 52.2454 16.1449 52.0927 15.351L53.8485 13.5037L51.2149 8.44269L48.6882 8.8091C47.1615 7.2366 45.2455 6.04577 43.0852 5.40456L42.2608 3H36.5586L35.7189 5.40456C33.5662 6.04577 31.6502 7.22896 30.1235 8.80147L27.5968 8.43506L24.9633 13.4961L26.719 15.3434C26.5663 16.1373 26.4823 16.9541 26.4823 17.7937C26.4823 18.6334 26.5663 19.4349 26.719 20.2212L24.9709 22.0914L27.6045 27.1524L30.1388 26.7936C31.6578 28.3585 33.5662 29.5417 35.7112 30.1829L36.5586 32.5951H42.2608L43.1081 30.1829C45.2531 29.5417 47.1691 28.3585 48.6882 26.7936L51.2225 27.1524L53.8561 22.0914L52.108 20.2212L52.0927 20.2288Z" stroke="#9D6219" stroke-width="2" stroke-miterlimit="10"/>
<path d="M39.4059 26.702C44.3216 26.702 48.3066 22.717 48.3066 17.8013C48.3066 12.8856 44.3216 8.90063 39.4059 8.90063C34.4902 8.90063 30.5052 12.8856 30.5052 17.8013C30.5052 22.717 34.4902 26.702 39.4059 26.702Z" stroke="#9D6219" stroke-width="2" stroke-miterlimit="10"/>
</g>
<defs>
<clipPath id="clip0_312_65">
<rect width="68" height="68" fill="white"/>
</clipPath>
</defs>
</svg>
