<svg width="50" height="34" viewBox="0 0 50 34" fill="none" xmlns="http://www.w3.org/2000/svg">
<path d="M48.0442 17C48.0442 17 37.7473 29 25.0462 29C12.3451 29 2.04419 17 2.04419 17C2.04419 17 12.3411 5 25.0422 5C37.7433 5 48.0442 16.9452 48.0442 16.9452V17Z" stroke="#9D6219" stroke-width="2" stroke-miterlimit="1.33344"/>
<path d="M25.0442 29C31.6716 29 37.0442 23.6274 37.0442 17C37.0442 10.3726 31.6716 5 25.0442 5C18.4168 5 13.0442 10.3726 13.0442 17C13.0442 23.6274 18.4168 29 25.0442 29Z" stroke="#9D6219" stroke-width="2" stroke-miterlimit="10"/>
<path d="M25.0442 23C28.3579 23 31.0442 20.3137 31.0442 17C31.0442 13.6863 28.3579 11 25.0442 11C21.7305 11 19.0442 13.6863 19.0442 17C19.0442 20.3137 21.7305 23 25.0442 23Z" fill="#9D6219"/>
<path d="M2 8.3096V1H9.32985" stroke="#9D6219" stroke-width="2" stroke-miterlimit="10"/>
<path d="M48.4281 25.6904V33H41.0983" stroke="#9D6219" stroke-width="2" stroke-miterlimit="10"/>
</svg>
