<svg width="92" height="92" viewBox="0 0 92 92" fill="none" xmlns="http://www.w3.org/2000/svg">
<path d="M46.2393 27.4688C46.2393 27.4688 62.5626 27.4692 66.6309 28.5596C68.8808 29.1672 70.6493 30.9401 71.2471 33.1875C72.3346 37.2663 72.335 45.7812 72.335 45.7812C72.335 45.8209 72.3322 54.3059 71.2471 58.375C70.641 60.6307 68.8726 62.4036 66.6309 63.0029C62.5626 64.0933 46.2393 64.0938 46.2393 64.0938C46.1477 64.0937 29.914 64.0902 25.8486 63.0029C23.5986 62.3953 21.8302 60.6224 21.2324 58.375C20.1473 54.3059 20.1445 45.8209 20.1445 45.7812C20.1445 45.7812 20.1448 37.2662 21.2324 33.1875C21.8385 30.9318 23.6069 29.1589 25.8486 28.5596C29.9139 27.4723 46.1477 27.4688 46.2393 27.4688ZM41 53.7607L54.5 45.75L41 37.7393V53.7607Z" fill="white"/>
</svg>
