<svg width="21" height="21" viewBox="0 0 21 21" fill="none" xmlns="http://www.w3.org/2000/svg">
<path d="M18.5938 4.70833H3.28125C3.19531 4.70833 3.125 4.77864 3.125 4.86458V6.11458C3.125 6.20052 3.19531 6.27083 3.28125 6.27083H18.5938C18.6797 6.27083 18.75 6.20052 18.75 6.11458V4.86458C18.75 4.77864 18.6797 4.70833 18.5938 4.70833ZM18.5938 15.2292H3.28125C3.19531 15.2292 3.125 15.2995 3.125 15.3854V16.6354C3.125 16.7214 3.19531 16.7917 3.28125 16.7917H18.5938C18.6797 16.7917 18.75 16.7214 18.75 16.6354V15.3854C18.75 15.2995 18.6797 15.2292 18.5938 15.2292ZM18.5938 9.96875H3.28125C3.19531 9.96875 3.125 10.0391 3.125 10.125V11.375C3.125 11.4609 3.19531 11.5312 3.28125 11.5312H18.5938C18.6797 11.5312 18.75 11.4609 18.75 11.375V10.125C18.75 10.0391 18.6797 9.96875 18.5938 9.96875Z" fill="#E2DBD5"/>
</svg>
