<svg width="256" height="31" viewBox="0 0 256 31" fill="none" xmlns="http://www.w3.org/2000/svg">
<path d="M29.7113 25.9687V8.99998H33.1761V16.0221C33.8513 15.0109 35.3364 14.3356 36.9563 14.3356C40.1056 14.3356 42.109 16.7877 42.109 20.4557C42.109 24.1236 39.8822 26.262 36.6868 26.262C35.1113 26.262 33.7609 25.5645 33.1539 24.5295L32.9749 25.9704H29.7113V25.9687ZM35.9451 23.0885C37.5888 23.0885 38.6221 21.9409 38.6221 20.2749C38.6221 18.6089 37.5871 17.4613 35.9451 17.4613C34.3031 17.4613 33.1999 18.585 33.1999 20.2749C33.1999 21.9648 34.3253 23.0885 35.9451 23.0885Z" fill="#E2DBD5"/>
<path d="M49.9712 14.38C53.5485 14.38 56.159 16.7656 56.159 20.321C56.159 23.8764 53.5485 26.2398 49.9712 26.2398C46.3939 26.2398 43.7612 23.8781 43.7612 20.321C43.7612 16.7639 46.3717 14.38 49.9712 14.38ZM49.9712 23.1329C51.5689 23.1329 52.6721 22.0074 52.6721 20.2971C52.6721 18.5868 51.5689 17.4835 49.9712 17.4835C48.3735 17.4835 47.2482 18.6089 47.2482 20.2971C47.2482 21.9853 48.3513 23.1329 49.9712 23.1329Z" fill="#E2DBD5"/>
<path d="M57.963 25.9687V8.99998H61.4499V15.8874C62.1473 14.9188 63.4312 14.3578 64.8925 14.3578C67.5695 14.3578 69.1229 16.0681 69.1229 19.0148V25.9687H65.6581V19.8469C65.6581 18.4299 64.8703 17.5073 63.6785 17.5073C62.3059 17.5073 61.4278 18.4077 61.4278 19.8026V25.9687H57.963Z" fill="#E2DBD5"/>
<path d="M70.9285 22.6605C70.9285 20.5904 72.3914 19.3063 75.0923 19.1051L78.2433 18.8579V18.6788C78.2433 17.5755 77.5681 16.9906 76.3302 16.9906C74.8672 16.9906 74.0795 17.5534 74.0795 18.5663H71.1996C71.1996 16.0238 73.2917 14.3595 76.5109 14.3595C79.7302 14.3595 81.6194 16.1807 81.6194 19.4001V25.9704H78.5588L78.3337 24.4851C77.9739 25.5202 76.4888 26.262 74.8007 26.262C72.4153 26.262 70.9302 24.8671 70.9302 22.6622L70.9285 22.6605ZM78.2655 21.7602V21.1531L76.5109 21.31C75.0036 21.4447 74.4631 21.7823 74.4631 22.5036C74.4631 23.3136 74.9576 23.6973 76.0148 23.6973C77.343 23.6973 78.2655 23.0442 78.2655 21.7619V21.7602Z" fill="#E2DBD5"/>
<path d="M99.6679 22.4133C99.7123 23.2011 100.297 23.6735 101.354 23.6735C102.411 23.6735 102.93 23.2898 102.93 22.7049C102.93 22.3673 102.749 22.0075 101.917 21.8284L99.847 21.3782C97.777 20.9298 96.7641 20.0277 96.7641 18.0479C96.7641 15.7067 98.7676 14.3578 101.467 14.3578C104.166 14.3578 105.9 15.8874 105.9 18.1605H102.614C102.614 17.3948 102.142 16.8782 101.308 16.8782C100.52 16.8782 100.026 17.284 100.026 17.8911C100.026 18.4077 100.454 18.701 101.242 18.8801L103.334 19.3303C105.179 19.7344 106.192 20.5887 106.192 22.3911C106.192 24.7989 104.144 26.262 101.218 26.262C98.2919 26.262 96.3788 24.6864 96.3788 22.415H99.6645L99.6679 22.4133ZM97.5979 9.38369H100.208L101.491 11.7454L102.773 9.38369H105.383L103.157 13.3432H99.8265L97.5996 9.38369H97.5979Z" fill="#E2DBD5"/>
<path d="M107.741 14.7159H111.206V25.9687H107.741V14.7159ZM110.734 13.3432H108.236L110.125 9.60705H113.23L110.732 13.3432H110.734Z" fill="#E2DBD5"/>
<path d="M89.4169 18.6481C90.2916 18.3616 90.9293 17.4835 90.9293 16.5217V14.4567H87.4287V17.2413C87.4287 18.0172 86.7995 18.6464 86.0237 18.6464H83.4235V21.784H88.9207C88.046 22.0705 87.4083 22.9487 87.4083 23.9104V25.9755H90.9088V23.1908C90.9088 22.415 91.538 21.7857 92.3138 21.7857H94.9141V18.6481H89.4169Z" fill="#9D6219"/>
<path d="M0 25.9687V23.0886L5.04026 17.5978H0V14.7176H9.42747V17.5978L4.25251 23.0886H9.42747V25.9687H0Z" fill="#E2DBD5"/>
<path d="M11.2468 22.6605C11.2468 20.5904 12.7098 19.3063 15.4107 19.1051L18.5617 18.8579V18.6788C18.5617 17.5755 17.8865 16.9906 16.6486 16.9906C15.1856 16.9906 14.3978 17.5534 14.3978 18.5663H11.5179C11.5179 16.0238 13.6101 14.3595 16.8293 14.3595C20.0485 14.3595 21.9378 16.1807 21.9378 19.4001V25.9704H18.8771L18.6521 24.4851C18.2923 25.5202 16.8071 26.262 15.1191 26.262C12.7337 26.262 11.2485 24.8671 11.2485 22.6622L11.2468 22.6605ZM18.5821 21.7602V21.1531L16.8276 21.31C15.3203 21.4447 14.7798 21.7823 14.7798 22.5036C14.7798 23.3136 15.276 23.6973 16.3314 23.6973C17.6597 23.6973 18.5821 23.0442 18.5821 21.7619V21.7602Z" fill="#E2DBD5"/>
<path d="M124.549 14.3561C127.879 14.3561 130.083 16.1773 130.308 19.1256H126.82C126.573 18.0019 125.875 17.4613 124.682 17.4613C123.219 17.4613 122.274 18.5629 122.274 20.2971C122.274 22.0313 123.15 23.1551 124.636 23.1551C125.851 23.1551 126.593 22.5924 126.818 21.4908H130.307C130.082 24.3249 127.787 26.2603 124.636 26.2603C121.08 26.2603 118.785 23.8986 118.785 20.2971C118.785 16.6957 121.171 14.3561 124.545 14.3561H124.549ZM120.678 9.38369H123.289L124.571 11.7454L125.853 9.38369H128.464L126.237 13.3432H122.907L120.68 9.38369H120.678Z" fill="#E2DBD5"/>
<path d="M131.959 20.3192C131.959 16.8082 134.322 14.3561 137.719 14.3561C141.115 14.3561 143.456 16.6735 143.456 20.3414V21.2179L135.287 21.2622C135.49 22.7475 136.322 23.4449 137.852 23.4449C139.158 23.4449 140.08 22.9726 140.328 22.1626H143.501C143.097 24.6607 140.868 26.2585 137.785 26.2585C134.387 26.2585 131.957 23.7843 131.957 20.3175L131.959 20.3192ZM135.333 19.1273H140.014C140.014 17.9353 139.137 17.1714 137.741 17.1714C136.344 17.1714 135.603 17.7785 135.333 19.1273Z" fill="#E2DBD5"/>
<path d="M148.284 22.4133C148.33 23.2011 148.914 23.6735 149.972 23.6735C151.029 23.6735 151.547 23.2898 151.547 22.7049C151.547 22.3673 151.366 22.0075 150.534 21.8284L148.464 21.3782C146.394 20.9298 145.381 20.0277 145.381 18.0479C145.381 15.7067 147.385 14.3578 150.086 14.3578C152.787 14.3578 154.519 15.8874 154.519 18.1605H151.233C151.233 17.3948 150.761 16.8781 149.927 16.8781C149.139 16.8781 148.645 17.284 148.645 17.891C148.645 18.4077 149.073 18.701 149.859 18.8801L151.951 19.3303C153.796 19.7344 154.809 20.5887 154.809 22.3911C154.809 24.7989 152.761 26.262 149.835 26.262C146.909 26.262 144.996 24.6864 144.996 22.415H148.282L148.284 22.4133Z" fill="#E2DBD5"/>
<path d="M156.615 25.9687V8.99998H160.079V18.7675L163.725 14.7159H168.068L163.837 19.1716L167.933 25.9687H163.928L161.408 21.7602L160.079 23.155V25.9687H156.615Z" fill="#E2DBD5"/>
<path d="M173.812 14.38C177.39 14.38 180 16.7656 180 20.321C180 23.8764 177.39 26.2398 173.812 26.2398C170.235 26.2398 167.602 23.8781 167.602 20.321C167.602 16.7639 170.213 14.38 173.812 14.38ZM173.812 23.1329C175.41 23.1329 176.513 22.0074 176.513 20.2971C176.513 18.5868 175.41 17.4835 173.812 17.4835C172.215 17.4835 171.089 18.6089 171.089 20.2971C171.089 21.9853 172.192 23.1329 173.812 23.1329Z" fill="#E2DBD5"/>
<path d="M237.172 2.08565C229.173 2.08565 222.688 8.55889 222.688 16.5418C222.688 24.5247 229.173 31 237.172 31C245.172 31 251.657 24.5267 251.657 16.5418C251.657 8.55685 245.17 2.08565 237.172 2.08565ZM227.37 18.3126C226.763 18.3126 226.323 18.1698 226.052 17.978C225.851 17.8352 225.749 17.6598 225.749 17.5006C225.749 17.2538 226.037 17.1253 226.06 17.1416C226.315 17.468 226.747 17.7149 227.354 17.7149C227.897 17.7149 228.2 17.5149 228.2 17.1967C228.2 16.805 227.84 16.7336 227.208 16.5989C226.64 16.4786 225.857 16.3031 225.857 15.4911C225.857 14.773 226.456 14.2875 227.39 14.2875C228.126 14.2875 228.588 14.518 228.772 14.7894C228.835 14.8771 228.868 14.973 228.868 15.0607C228.868 15.3075 228.566 15.4524 228.549 15.4279C228.31 15.1096 227.91 14.8852 227.423 14.8852C226.879 14.8852 226.591 15.0933 226.591 15.4116C226.591 15.7625 226.926 15.842 227.55 15.9787C228.14 16.1073 228.964 16.2827 228.964 17.111C228.964 17.8454 228.357 18.3146 227.366 18.3146L227.37 18.3126ZM231.515 17.874C231.515 18.1616 231.372 18.2494 231.163 18.2494H231.084C230.875 18.2494 230.724 18.1616 230.724 17.874V14.7241C230.724 14.4364 230.875 14.3405 231.084 14.3405H231.163C231.372 14.3405 231.515 14.4283 231.515 14.7241V17.874ZM235.637 15.2014C235.517 15.1056 235.365 15.0342 235.151 15.0342C234.527 15.0342 234.28 15.6401 234.28 16.5255V17.874C234.28 18.1616 234.129 18.2494 233.929 18.2494H233.841C233.632 18.2494 233.489 18.1616 233.489 17.874V14.4283C233.489 14.4038 233.616 14.3405 233.777 14.3405C233.961 14.3405 234.162 14.4201 234.241 14.7241C234.258 14.8036 234.274 14.8995 234.274 15.0117C234.442 14.5405 234.76 14.2854 235.249 14.2854C235.647 14.2854 235.88 14.4772 235.88 14.7955C235.88 15.1137 235.658 15.2178 235.641 15.2014H235.637ZM238.241 17.874C238.241 18.1616 238.098 18.2494 237.89 18.2494H237.81C237.601 18.2494 237.45 18.1616 237.45 17.874V14.7241C237.45 14.4364 237.601 14.3405 237.81 14.3405H237.89C238.098 14.3405 238.241 14.4283 238.241 14.7241V17.874ZM243.723 18.1596C243.723 18.1841 243.594 18.2473 243.443 18.2473C243.251 18.2473 243.05 18.1759 242.971 17.8883C242.954 17.8169 242.938 17.7373 242.938 17.6414C242.666 18.0331 242.251 18.3106 241.66 18.3106C240.647 18.3106 240.183 17.6251 240.183 16.6683V14.722C240.183 14.4344 240.326 14.3385 240.526 14.3385H240.614C240.822 14.3385 240.966 14.4262 240.966 14.722V16.5724C240.966 17.2334 241.301 17.6251 241.883 17.6251C242.361 17.6251 242.738 17.3538 242.938 16.9478V14.722C242.938 14.4344 243.081 14.3385 243.281 14.3385H243.369C243.578 14.3385 243.721 14.4262 243.721 14.722V18.1596H243.723ZM248.403 14.7873C248.466 14.875 248.499 14.9709 248.499 15.0586C248.499 15.3055 248.197 15.4503 248.18 15.4259C247.941 15.1076 247.541 14.8832 247.054 14.8832C246.51 14.8832 246.224 15.0913 246.224 15.4095C246.224 15.7604 246.56 15.84 247.183 15.9767C247.774 16.1052 248.597 16.2807 248.597 17.1089C248.597 17.8434 247.99 18.3126 246.999 18.3126C246.392 18.3126 245.952 18.1698 245.681 17.978C245.48 17.8352 245.376 17.6598 245.376 17.5006C245.376 17.2538 245.664 17.1253 245.687 17.1416C245.942 17.468 246.374 17.7149 246.981 17.7149C247.524 17.7149 247.827 17.5149 247.827 17.1967C247.827 16.805 247.467 16.7336 246.835 16.5989C246.269 16.4786 245.487 16.3031 245.487 15.4911C245.487 14.773 246.085 14.2875 247.019 14.2875C247.755 14.2875 248.217 14.518 248.401 14.7894L248.403 14.7873Z" fill="white"/>
<path d="M252.378 0.639221C250.379 0.639221 248.757 2.25702 248.757 4.25428C248.757 6.25153 250.377 7.86933 252.378 7.86933C254.379 7.86933 256 6.25153 256 4.25428C256 2.25702 254.379 0.639221 252.378 0.639221Z" fill="white"/>
<path opacity="0.5" d="M201.5 30V6.49998" stroke="white"/>
</svg>
