<svg width="44" height="44" viewBox="0 0 44 44" fill="none" xmlns="http://www.w3.org/2000/svg">
<path d="M9.16686 23.8333C9.16686 26.8554 10.3855 29.5928 12.3582 31.5809C12.5485 31.7727 12.6436 31.8685 12.6998 31.9607C12.7533 32.0487 12.7845 32.1244 12.8085 32.2246C12.8335 32.3296 12.8335 32.4491 12.8335 32.688V37.0333C12.8335 37.5467 12.8335 37.8034 12.9334 37.9995C13.0213 38.172 13.1616 38.3122 13.334 38.4001C13.5301 38.5 13.7868 38.5 14.3002 38.5H17.7835C18.2969 38.5 18.5536 38.5 18.7497 38.4001C18.9222 38.3122 19.0624 38.172 19.1503 37.9995C19.2502 37.8034 19.2502 37.5467 19.2502 37.0333V36.3C19.2502 35.7866 19.2502 35.5299 19.3501 35.3338C19.438 35.1614 19.5782 35.0211 19.7507 34.9332C19.9468 34.8333 20.2035 34.8333 20.7169 34.8333H23.2835C23.7969 34.8333 24.0536 34.8333 24.2497 34.9332C24.4222 35.0211 24.5624 35.1614 24.6503 35.3338C24.7502 35.5299 24.7502 35.7866 24.7502 36.3V37.0333C24.7502 37.5467 24.7502 37.8034 24.8501 37.9995C24.938 38.172 25.0782 38.3122 25.2507 38.4001C25.4468 38.5 25.7035 38.5 26.2169 38.5H29.7003C30.2137 38.5 30.4704 38.5 30.6665 38.4001C30.839 38.3122 30.9792 38.172 31.0671 37.9995C31.167 37.8034 31.167 37.5467 31.167 37.0333V35.2446C31.167 34.8742 31.167 34.6889 31.2197 34.5403C31.2703 34.3977 31.3339 34.298 31.4419 34.1921C31.5546 34.0817 31.7454 33.9931 32.1271 33.8159C33.9278 32.9799 35.4644 31.6709 36.5774 30.0486C36.7731 29.7634 36.8709 29.6207 36.9755 29.5364C37.0754 29.4559 37.165 29.4086 37.288 29.3718C37.4166 29.3333 37.5693 29.3333 37.8747 29.3333H38.867C39.3804 29.3333 39.6371 29.3333 39.8332 29.2334C40.0056 29.1455 40.1459 29.0053 40.2337 28.8328C40.3337 28.6367 40.3337 28.38 40.3337 27.8667V21.6072C40.3337 21.1185 40.3337 20.8741 40.2429 20.6856C40.1528 20.4985 40.0018 20.3476 39.8148 20.2575C39.6262 20.1667 39.3819 20.1667 38.8931 20.1667C38.5394 20.1667 38.3625 20.1667 38.22 20.1186C38.0664 20.0669 37.9586 19.998 37.8472 19.8802C37.7438 19.7711 37.6594 19.5885 37.4907 19.2234C36.949 18.0514 36.2071 16.9909 35.309 16.0857C35.1187 15.894 35.0236 15.7981 34.9674 15.7059C34.9139 15.618 34.8827 15.5422 34.8587 15.4421C34.8337 15.3371 34.8337 15.2176 34.8337 14.9787V12.9444C34.8337 12.2843 34.8337 11.9543 34.6962 11.7324C34.5758 11.5381 34.3871 11.3958 34.1672 11.3334C33.9161 11.2622 33.5988 11.3528 32.9641 11.5342L28.6144 12.7769C28.5405 12.798 28.5035 12.8086 28.4659 12.816C28.4326 12.8226 28.3988 12.8273 28.3649 12.8301C28.3268 12.8333 28.2883 12.8333 28.2114 12.8333H27.4252M9.16686 23.8333C9.16686 19.6092 11.5478 15.9412 15.0409 14.0982M9.16686 23.8333H7.33366C5.30861 23.8333 3.66699 22.1917 3.66699 20.1667C3.66699 18.8095 4.40436 17.6245 5.50033 16.9905M27.5003 11.9167C27.5003 15.4605 24.6275 18.3333 21.0837 18.3333C17.5398 18.3333 14.667 15.4605 14.667 11.9167C14.667 8.37284 17.5398 5.5 21.0837 5.5C24.6275 5.5 27.5003 8.37284 27.5003 11.9167Z" stroke="#9D6219" stroke-width="2.5" stroke-linecap="round" stroke-linejoin="round"/>
</svg>
