<svg width="44" height="44" viewBox="0 0 44 44" fill="none" xmlns="http://www.w3.org/2000/svg">
<path d="M22.0003 29.3333V38.5M33.0003 38.5L25.7561 32.4631C24.42 31.3497 23.7519 30.793 23.0062 30.5803C22.3487 30.3927 21.6519 30.3927 20.9944 30.5803C20.2487 30.793 19.5807 31.3497 18.2446 32.4631L11.0003 38.5M14.667 20.1667V22M22.0003 16.5V22M29.3337 12.8333V22M40.3337 5.5H3.66699M5.50033 5.5H38.5003V20.5333C38.5003 23.6136 38.5003 25.1538 37.9009 26.3303C37.3736 27.3652 36.5322 28.2066 35.4973 28.7339C34.3208 29.3333 32.7806 29.3333 29.7003 29.3333H14.3003C11.22 29.3333 9.67989 29.3333 8.50338 28.7339C7.46849 28.2066 6.62709 27.3652 6.09979 26.3303C5.50033 25.1538 5.50033 23.6136 5.50033 20.5333V5.5Z" stroke="#9D6219" stroke-width="2.5" stroke-linecap="round" stroke-linejoin="round"/>
</svg>
