<svg width="44" height="44" viewBox="0 0 44 44" fill="none" xmlns="http://www.w3.org/2000/svg">
<path d="M21.9997 4.58338V39.4167M36.6663 22C36.6663 30.9989 26.8507 37.5438 23.2793 39.6273C22.8734 39.8641 22.6705 39.9825 22.3841 40.0439C22.1618 40.0916 21.8375 40.0916 21.6153 40.0439C21.3289 39.9825 21.1259 39.8641 20.72 39.6273C17.1486 37.5438 7.33301 30.9989 7.33301 22V13.2323C7.33301 11.7665 7.33301 11.0337 7.57274 10.4037C7.78451 9.84714 8.12864 9.35056 8.57538 8.95685C9.08108 8.51119 9.7673 8.25385 11.1397 7.73919L20.9697 4.05295C21.3509 3.91002 21.5414 3.83856 21.7375 3.81023C21.9114 3.7851 22.088 3.7851 22.2619 3.81023C22.4579 3.83856 22.6485 3.91002 23.0296 4.05295L32.8596 7.73919C34.232 8.25385 34.9183 8.51119 35.424 8.95685C35.8707 9.35056 36.2148 9.84714 36.4266 10.4037C36.6663 11.0337 36.6663 11.7665 36.6663 13.2323V22Z" stroke="#9D6219" stroke-width="2.5" stroke-linecap="round" stroke-linejoin="round"/>
</svg>
