<svg width="420" height="420" viewBox="0 0 420 420" fill="none" xmlns="http://www.w3.org/2000/svg">
<path d="M66.4714 46.467C76.1778 43.279 83.2494 33.5452 83.2494 22.8911V0H44.4238V30.8885C44.4238 39.4939 37.4507 46.4724 28.8453 46.4724H0V81.2665H60.9663C51.2599 84.4545 44.1883 94.1883 44.1883 104.842V127.733H83.0139V96.845C83.0139 88.2396 89.9869 81.261 98.5923 81.261H127.432V46.467H66.4659H66.4714Z" fill="#9D6219"/>
<path d="M66.4714 193.052C76.1778 189.864 83.2494 180.13 83.2494 169.476V146.585H44.4238V177.473C44.4238 186.079 37.4507 193.057 28.8453 193.057H0V227.851H60.9663C51.2599 231.039 44.1883 240.773 44.1883 251.427V274.318H83.0139V243.43C83.0139 234.824 89.9869 227.846 98.5923 227.846H127.432V193.052H66.4659H66.4714Z" fill="#9D6219"/>
<path d="M66.4714 338.431C76.1778 335.243 83.2494 325.509 83.2494 314.855V291.964H44.4238V322.852C44.4238 331.458 37.4507 338.436 28.8453 338.436H0V373.23H60.9663C51.2599 376.418 44.1883 386.152 44.1883 396.806V419.697H83.0139V388.809C83.0139 380.203 89.9869 373.225 98.5923 373.225H127.432V338.431H66.4659H66.4714Z" fill="#9D6219"/>
<path d="M212.755 46.467C222.462 43.279 229.533 33.5452 229.533 22.8911V0H190.708V30.8885C190.708 39.4939 183.735 46.4724 175.129 46.4724H146.284V81.2665H207.25C197.544 84.4545 190.472 94.1883 190.472 104.842V127.733H229.298V96.845C229.298 88.2396 236.271 81.261 244.876 81.261H273.716V46.467H212.75H212.755Z" fill="#9D6219"/>
<path d="M212.755 193.052C222.462 189.864 229.533 180.13 229.533 169.476V146.585H190.708V177.473C190.708 186.079 183.735 193.057 175.129 193.057H146.284V227.851H207.25C197.544 231.039 190.472 240.773 190.472 251.427V274.318H229.298V243.43C229.298 234.824 236.271 227.846 244.876 227.846H273.716V193.052H212.75H212.755Z" fill="#9D6219"/>
<path d="M212.755 338.431C222.462 335.243 229.533 325.509 229.533 314.855V291.964H190.708V322.852C190.708 331.458 183.735 338.436 175.129 338.436H146.284V373.23H207.25C197.544 376.418 190.472 386.152 190.472 396.806V419.697H229.298V388.809C229.298 380.203 236.271 373.225 244.876 373.225H273.716V338.431H212.75H212.755Z" fill="#9D6219"/>
<path d="M359.039 46.467C368.746 43.279 375.817 33.5452 375.817 22.8911V0H336.992V30.8885C336.992 39.4939 330.019 46.4724 321.413 46.4724H292.568V81.2665H353.534C343.828 84.4545 336.756 94.1883 336.756 104.842V127.733H375.582V96.845C375.582 88.2396 382.555 81.261 391.16 81.261H420V46.467H359.034H359.039Z" fill="#E2DBD5"/>
<path d="M359.039 193.052C368.746 189.864 375.817 180.13 375.817 169.476V146.585H336.992V177.473C336.992 186.079 330.019 193.057 321.413 193.057H292.568V227.851H353.534C343.828 231.039 336.756 240.773 336.756 251.427V274.318H375.582V243.43C375.582 234.824 382.555 227.846 391.16 227.846H420V193.052H359.034H359.039Z" fill="#9D6219"/>
<path d="M359.039 338.431C368.746 335.243 375.817 325.509 375.817 314.855V291.964H336.992V322.852C336.992 331.458 330.019 338.436 321.413 338.436H292.568V373.23H353.534C343.828 376.418 336.756 386.152 336.756 396.806V419.697H375.582V388.809C375.582 380.203 382.555 373.225 391.16 373.225H420V338.431H359.034H359.039Z" fill="#9D6219"/>
</svg>
