<svg width="205" height="206" viewBox="0 0 205 206" fill="none" xmlns="http://www.w3.org/2000/svg">
<path d="M174.871 22.7701C179.609 21.2079 183.06 16.4381 183.06 11.2173V0H164.11V15.1362C164.11 19.3531 160.706 22.7728 156.506 22.7728H142.427V39.8229H172.184C167.446 41.3851 163.995 46.1549 163.995 51.3757V62.593H182.945V47.4568C182.945 43.2399 186.349 39.8202 190.549 39.8202H204.626V22.7701H174.868H174.871Z" fill="#9D6219"/>
<path d="M32.4444 94.6012C37.182 93.039 40.6336 88.2691 40.6336 83.0484V71.8311H21.683V86.9673C21.683 91.1842 18.2795 94.6039 14.0793 94.6039H0V111.654H29.7574C25.0197 113.216 21.5681 117.986 21.5681 123.207V134.424H40.5187V119.288C40.5187 115.071 43.9222 111.651 48.1225 111.651H62.1991V94.6012H32.4417H32.4444Z" fill="#9D6219"/>
<path d="M32.4444 165.841C37.182 164.279 40.6336 159.509 40.6336 154.288V143.071H21.683V158.207C21.683 162.424 18.2795 165.844 14.0793 165.844H0V182.894H29.7574C25.0197 184.456 21.5681 189.226 21.5681 194.446V205.664H40.5187V190.528C40.5187 186.311 43.9222 182.891 48.1225 182.891H62.1991V165.841H32.4417H32.4444Z" fill="#9D6219"/>
<path d="M103.845 22.7701C108.583 21.2079 112.034 16.4381 112.034 11.2173V0H93.0837V15.1362C93.0837 19.3531 89.6802 22.7728 85.4799 22.7728H71.4006V39.8229H101.158C96.4204 41.3851 92.9687 46.1549 92.9687 51.3757V62.593H111.919V47.4568C111.919 43.2399 115.323 39.8202 119.523 39.8202H133.6V22.7701H103.842H103.845Z" fill="#9D6219"/>
<path d="M103.845 94.6012C108.583 93.039 112.034 88.2691 112.034 83.0484V71.8311H93.0837V86.9673C93.0837 91.1842 89.6802 94.6039 85.4799 94.6039H71.4006V111.654H101.158C96.4204 113.216 92.9687 117.986 92.9687 123.207V134.424H111.919V119.288C111.919 115.071 115.323 111.651 119.523 111.651H133.6V94.6012H103.842H103.845Z" fill="#9D6219"/>
<path d="M103.845 165.841C108.583 164.279 112.034 159.509 112.034 154.288V143.071H93.0837V158.207C93.0837 162.424 89.6802 165.844 85.4799 165.844H71.4006V182.894H101.158C96.4204 184.456 92.9687 189.226 92.9687 194.446V205.664H111.919V190.528C111.919 186.311 115.323 182.891 119.523 182.891H133.6V165.841H103.842H103.845Z" fill="#9D6219"/>
<path d="M32.8186 22.7701C37.5563 21.2079 41.0079 16.4381 41.0079 11.2173V0H22.0573V15.1362C22.0573 19.3531 18.6538 22.7728 14.4535 22.7728H0.374268V39.8229H30.1316C25.394 41.3851 21.9423 46.1549 21.9423 51.3757V62.593H40.893V47.4568C40.893 43.2399 44.2965 39.8202 48.4967 39.8202H62.5733V22.7701H32.8159H32.8186Z" fill="#E2DBD5"/>
<path d="M175.245 94.6012C179.983 93.039 183.435 88.2691 183.435 83.0484V71.8311H164.484V86.9673C164.484 91.1842 161.081 94.6039 156.88 94.6039H142.801V111.654H172.558C167.821 113.216 164.369 117.986 164.369 123.207V134.424H183.32V119.288C183.32 115.071 186.723 111.651 190.923 111.651H205V94.6012H175.243H175.245Z" fill="#9D6219"/>
<path d="M175.245 165.841C179.983 164.279 183.435 159.509 183.435 154.288V143.071H164.484V158.207C164.484 162.424 161.081 165.844 156.88 165.844H142.801V182.894H172.558C167.821 184.456 164.369 189.226 164.369 194.446V205.664H183.32V190.528C183.32 186.311 186.723 182.891 190.923 182.891H205V165.841H175.243H175.245Z" fill="#9D6219"/>
</svg>
