<svg width="380" height="380" viewBox="0 0 380 380" fill="none" xmlns="http://www.w3.org/2000/svg">
<g clip-path="url(#clip0_682_52)">
<path d="M60.1408 41.9627C68.9228 39.0837 75.321 30.2935 75.321 20.6722V0H40.193V27.8943C40.193 35.6655 33.884 41.9676 26.0982 41.9676H0V73.3889H55.1601C46.3781 76.2679 39.9799 85.0581 39.9799 94.6794V115.352H75.1079V87.4573C75.1079 79.686 81.4169 73.384 89.2027 73.384H115.296V41.9627H60.1359H60.1408Z" fill="#9D6219"/>
<path d="M60.1408 174.338C68.9228 171.459 75.321 162.669 75.321 153.048V132.375H40.193V160.27C40.193 168.041 33.884 174.343 26.0982 174.343H0V205.764H55.1601C46.3781 208.643 39.9799 217.434 39.9799 227.055V247.727H75.1079V219.833C75.1079 212.062 81.4169 205.759 89.2027 205.759H115.296V174.338H60.1359H60.1408Z" fill="#9D6219"/>
<path d="M192.494 41.9627C201.276 39.0837 207.674 30.2935 207.674 20.6722V0H172.546V27.8943C172.546 35.6655 166.237 41.9676 158.451 41.9676H132.353V73.3889H187.513C178.731 76.2679 172.333 85.0581 172.333 94.6794V115.352H207.461V87.4573C207.461 79.686 213.77 73.384 221.556 73.384H247.649V41.9627H192.489H192.494Z" fill="#9D6219"/>
<path d="M192.494 174.338C201.276 171.459 207.674 162.668 207.674 153.047V132.375H172.546V160.269C172.546 168.041 166.237 174.343 158.451 174.343H132.353V205.764H187.513C178.731 208.643 172.333 217.433 172.333 227.054V247.727H207.461V219.832C207.461 212.061 213.77 205.759 221.556 205.759H247.649V174.338H192.489H192.494Z" fill="#9D6219"/>
<path d="M192.494 305.625C201.276 302.746 207.674 293.956 207.674 284.335V263.662H172.546V291.557C172.546 299.328 166.237 305.63 158.451 305.63H132.353V337.051H187.513C178.731 339.93 172.333 348.72 172.333 358.342V379.014H207.461V351.12C207.461 343.348 213.77 337.046 221.556 337.046H247.649V305.625H192.489H192.494Z" fill="#9D6219"/>
<path d="M60.1408 305.625C68.9228 302.746 75.321 293.956 75.321 284.335V263.662H40.193V291.557C40.193 299.328 33.884 305.63 26.0982 305.63H0V337.051H55.1601C46.3781 339.93 39.9799 348.72 39.9799 358.342V379.014H75.1079V351.12C75.1079 343.348 81.4169 337.046 89.2027 337.046H115.296V305.625H60.1359H60.1408Z" fill="#9D6219"/>
<path d="M324.845 41.9627C333.627 39.0837 340.025 30.2935 340.025 20.6722V0H304.897V27.8943C304.897 35.6655 298.588 41.9676 290.802 41.9676H264.704V73.3889H319.864C311.082 76.2679 304.684 85.0581 304.684 94.6794V115.352H339.812V87.4573C339.812 79.686 346.121 73.384 353.907 73.384H380V41.9627H324.84H324.845Z" fill="#232323"/>
<path d="M324.845 174.338C333.627 171.459 340.025 162.668 340.025 153.047V132.375H304.897V160.269C304.897 168.041 298.588 174.343 290.802 174.343H264.704V205.764H319.864C311.082 208.643 304.684 217.433 304.684 227.054V247.727H339.812V219.832C339.812 212.061 346.121 205.759 353.907 205.759H380V174.338H324.84H324.845Z" fill="#9D6219"/>
<path d="M324.845 305.625C333.627 302.746 340.025 293.956 340.025 284.335V263.662H304.897V291.557C304.897 299.328 298.588 305.63 290.802 305.63H264.704V337.051H319.864C311.082 339.93 304.684 348.72 304.684 358.342V379.014H339.812V351.12C339.812 343.348 346.121 337.046 353.907 337.046H380V305.625H324.84H324.845Z" fill="#9D6219"/>
</g>
<defs>
<clipPath id="clip0_682_52">
<rect width="380" height="380" fill="white"/>
</clipPath>
</defs>
</svg>
