<svg width="200" height="200" viewBox="0 0 200 200" fill="none" xmlns="http://www.w3.org/2000/svg">
<path d="M31.6531 22.0856C36.2752 20.5704 39.6427 15.9439 39.6427 10.8801V0H21.1542V14.6812C21.1542 18.7713 17.8337 22.0882 13.7359 22.0882H0V38.6257H29.0316C24.4095 40.141 21.0421 44.7674 21.0421 49.8312V60.7113H39.5305V46.0301C39.5305 41.94 42.851 38.6231 46.9488 38.6231H60.6821V22.0856H31.6505H31.6531Z" fill="#9D6219"/>
<path d="M31.6531 91.7567C36.2752 90.2415 39.6427 85.6151 39.6427 80.5512V69.6711H21.1542V84.3524C21.1542 88.4425 17.8337 91.7593 13.7359 91.7593H0V108.297H29.0316C24.4095 109.812 21.0421 114.439 21.0421 119.502V130.382H39.5305V115.701C39.5305 111.611 42.851 108.294 46.9488 108.294H60.6821V91.7567H31.6505H31.6531Z" fill="#9D6219"/>
<path d="M101.313 22.0856C105.935 20.5704 109.302 15.9439 109.302 10.8801V0H90.8139V14.6812C90.8139 18.7713 87.4934 22.0882 83.3956 22.0882H69.6597V38.6257H98.6913C94.0692 40.141 90.7017 44.7674 90.7017 49.8312V60.7113H109.19V46.0301C109.19 41.94 112.511 38.6231 116.608 38.6231H130.342V22.0856H101.31H101.313Z" fill="#9D6219"/>
<path d="M101.313 91.7565C105.935 90.2413 109.302 85.6148 109.302 80.551V69.6709H90.8139V84.3521C90.8139 88.4422 87.4934 91.7591 83.3956 91.7591H69.6597V108.297H98.6913C94.0692 109.812 90.7017 114.438 90.7017 119.502V130.382H109.19V115.701C109.19 111.611 112.511 108.294 116.608 108.294H130.342V91.7565H101.31H101.313Z" fill="#9D6219"/>
<path d="M101.313 160.855C105.935 159.34 109.302 154.713 109.302 149.65V138.77H90.8139V153.451C90.8139 157.541 87.4934 160.858 83.3956 160.858H69.6597V177.395H98.6913C94.0692 178.91 90.7017 183.537 90.7017 188.601V199.481H109.19V184.8C109.19 180.71 112.511 177.393 116.608 177.393H130.342V160.855H101.31H101.313Z" fill="#9D6219"/>
<path d="M31.6531 160.855C36.2752 159.34 39.6427 154.713 39.6427 149.65V138.77H21.1542V153.451C21.1542 157.541 17.8337 160.858 13.7359 160.858H0V177.395H29.0316C24.4095 178.91 21.0421 183.537 21.0421 188.601V199.481H39.5305V184.8C39.5305 180.71 42.851 177.393 46.9488 177.393H60.6821V160.855H31.6505H31.6531Z" fill="#9D6219"/>
<path d="M170.971 22.0856C175.593 20.5704 178.961 15.9439 178.961 10.8801V0H160.472V14.6812C160.472 18.7713 157.152 22.0882 153.054 22.0882H139.318V38.6257H168.35C163.727 40.141 160.36 44.7674 160.36 49.8312V60.7113H178.848V46.0301C178.848 41.94 182.169 38.6231 186.267 38.6231H200V22.0856H170.968H170.971Z" fill="#232323"/>
<path d="M170.971 91.7565C175.593 90.2413 178.961 85.6148 178.961 80.551V69.6709H160.472V84.3521C160.472 88.4422 157.152 91.7591 153.054 91.7591H139.318V108.297H168.35C163.727 109.812 160.36 114.438 160.36 119.502V130.382H178.848V115.701C178.848 111.611 182.169 108.294 186.267 108.294H200V91.7565H170.968H170.971Z" fill="#9D6219"/>
<path d="M170.971 160.855C175.593 159.34 178.961 154.713 178.961 149.65V138.77H160.472V153.451C160.472 157.541 157.152 160.858 153.054 160.858H139.318V177.395H168.35C163.727 178.91 160.36 183.537 160.36 188.601V199.481H178.848V184.8C178.848 180.71 182.169 177.393 186.267 177.393H200V160.855H170.968H170.971Z" fill="#9D6219"/>
</svg>
