<svg width="736" height="687" viewBox="0 0 736 687" fill="none" xmlns="http://www.w3.org/2000/svg">
<path d="M497.5 1V123.049C497.5 179.895 459.756 231.83 407.999 248.829L402.062 250.779H735V435.812H580.974C534.164 435.812 496.233 473.772 496.233 520.581V685.619H289.53V563.57C289.53 506.724 327.274 454.79 379.031 437.791L384.968 435.841H52V250.809H206.056C252.866 250.808 290.796 212.847 290.796 166.038V1H497.5Z" stroke="#9D6219" stroke-width="2" stroke-miterlimit="16"/>
<path d="M54.6411 236.197C62.62 233.576 68.433 225.575 68.433 216.817V198H36.5174V223.391C36.5174 230.465 30.7854 236.201 23.7116 236.201H0V264.803H50.1158C42.1369 267.424 36.3238 275.425 36.3238 284.183V303H68.2394V277.609C68.2394 270.535 73.9714 264.799 81.0453 264.799H104.752V236.197H54.6366H54.6411Z" fill="#9D6219"/>
</svg>
