<svg width="44" height="44" viewBox="0 0 44 44" fill="none" xmlns="http://www.w3.org/2000/svg">
<path d="M29.3333 14.6667V8.25125C29.3333 6.7264 29.3333 5.96397 29.0121 5.49542C28.7315 5.08605 28.2968 4.80796 27.8076 4.7247C27.2475 4.6294 26.5553 4.9489 25.1708 5.5879L8.90819 13.0937C7.67343 13.6636 7.05604 13.9485 6.60386 14.3905C6.20411 14.7812 5.89896 15.2581 5.71176 15.7847C5.5 16.3805 5.5 17.0605 5.5 18.4204V27.5001M30.25 26.5834H30.2683M5.5 20.5334L5.5 32.6334C5.5 34.6869 5.5 35.7137 5.89964 36.498C6.25118 37.1879 6.81211 37.7489 7.50203 38.1004C8.28638 38.5 9.31314 38.5 11.3667 38.5H32.6333C34.6869 38.5 35.7136 38.5001 36.498 38.1004C37.1879 37.7489 37.7488 37.1879 38.1004 36.498C38.5 35.7137 38.5 34.6869 38.5 32.6334V20.5334C38.5 18.4799 38.5 17.4531 38.1004 16.6688C37.7488 15.9788 37.1879 15.4179 36.498 15.0664C35.7136 14.6667 34.6869 14.6667 32.6333 14.6667L11.3667 14.6667C9.31314 14.6667 8.28638 14.6667 7.50204 15.0664C6.81211 15.4179 6.25118 15.9788 5.89964 16.6688C5.5 17.4531 5.5 18.4799 5.5 20.5334ZM31.1667 26.5834C31.1667 27.0896 30.7563 27.5001 30.25 27.5001C29.7437 27.5001 29.3333 27.0896 29.3333 26.5834C29.3333 26.0771 29.7437 25.6667 30.25 25.6667C30.7563 25.6667 31.1667 26.0771 31.1667 26.5834Z" stroke="#9D6219" stroke-width="2.5" stroke-linecap="round" stroke-linejoin="round"/>
</svg>
