<svg width="256" height="31" viewBox="0 0 256 31" fill="none" xmlns="http://www.w3.org/2000/svg">
<path d="M29.7113 25.3294V8.36076H33.176V15.3829C33.8512 14.3717 35.3364 13.6964 36.9562 13.6964C40.1055 13.6964 42.109 16.1485 42.109 19.8165C42.109 23.4844 39.8822 25.6227 36.6868 25.6227C35.1113 25.6227 33.7609 24.9253 33.1539 23.8902L32.9748 25.3311H29.7113V25.3294ZM35.9451 22.4493C37.5888 22.4493 38.6221 21.3017 38.6221 19.6357C38.6221 17.9697 37.5871 16.8221 35.9451 16.8221C34.3031 16.8221 33.1999 17.9458 33.1999 19.6357C33.1999 21.3256 34.3253 22.4493 35.9451 22.4493Z" fill="#E2DBD5"/>
<path d="M49.9712 13.7408C53.5485 13.7408 56.159 16.1264 56.159 19.6818C56.159 23.2371 53.5485 25.6006 49.9712 25.6006C46.3939 25.6006 43.7612 23.2388 43.7612 19.6818C43.7612 16.1247 46.3717 13.7408 49.9712 13.7408ZM49.9712 22.4937C51.5689 22.4937 52.6721 21.3682 52.6721 19.6579C52.6721 17.9475 51.5689 16.8443 49.9712 16.8443C48.3735 16.8443 47.2482 17.9697 47.2482 19.6579C47.2482 21.3461 48.3513 22.4937 49.9712 22.4937Z" fill="#E2DBD5"/>
<path d="M57.963 25.3294V8.36076H61.4499V15.2482C62.1473 14.2796 63.4312 13.7186 64.8925 13.7186C67.5695 13.7186 69.1228 15.4289 69.1228 18.3755V25.3294H65.6581V19.2077C65.6581 17.7907 64.8703 16.8681 63.6785 16.8681C62.3059 16.8681 61.4277 17.7685 61.4277 19.1634V25.3294H57.963Z" fill="#E2DBD5"/>
<path d="M70.9285 22.0213C70.9285 19.9512 72.3915 18.6671 75.0924 18.4659L78.2434 18.2187V18.0396C78.2434 16.9363 77.5682 16.3514 76.3303 16.3514C74.8673 16.3514 74.0795 16.9142 74.0795 17.9271H71.1996C71.1996 15.3846 73.2918 13.7203 76.511 13.7203C79.7302 13.7203 81.6195 15.5415 81.6195 18.7609V25.3311H78.5588L78.3338 23.8459C77.974 24.881 76.4888 25.6227 74.8008 25.6227C72.4154 25.6227 70.9302 24.2279 70.9302 22.023L70.9285 22.0213ZM78.2655 21.1209V20.5139L76.511 20.6708C75.0037 20.8055 74.4632 21.1431 74.4632 21.8644C74.4632 22.6744 74.9577 23.0581 76.0148 23.0581C77.3431 23.0581 78.2655 22.405 78.2655 21.1227V21.1209Z" fill="#E2DBD5"/>
<path d="M99.6679 21.7741C99.7122 22.5619 100.297 23.0343 101.354 23.0343C102.411 23.0343 102.93 22.6506 102.93 22.0657C102.93 21.728 102.749 21.3682 101.917 21.1892L99.8469 20.739C97.7769 20.2905 96.7641 19.3885 96.7641 17.4087C96.7641 15.0674 98.7676 13.7186 101.467 13.7186C104.166 13.7186 105.9 15.2482 105.9 17.5213H102.614C102.614 16.7556 102.142 16.2389 101.308 16.2389C100.52 16.2389 100.026 16.6448 100.026 17.2518C100.026 17.7685 100.454 18.0618 101.242 18.2409L103.334 18.691C105.179 19.0952 106.192 19.9495 106.192 21.7519C106.192 24.1597 104.144 25.6228 101.218 25.6228C98.2919 25.6228 96.3788 24.0472 96.3788 21.7758H99.6645L99.6679 21.7741ZM97.5979 8.74448H100.208L101.491 11.1062L102.773 8.74448H105.383L103.157 12.704H99.8265L97.5996 8.74448H97.5979Z" fill="#E2DBD5"/>
<path d="M107.742 14.0767H111.206V25.3295H107.742V14.0767ZM110.734 12.704H108.236L110.125 8.96783H113.23L110.732 12.704H110.734Z" fill="#E2DBD5"/>
<path d="M89.4169 18.0089C90.2916 17.7224 90.9293 16.8442 90.9293 15.8825V13.8175H87.4287V16.6021C87.4287 17.378 86.7995 18.0072 86.0237 18.0072H83.4235V21.1448H88.9207C88.046 21.4313 87.4083 22.3095 87.4083 23.2712V25.3362H90.9088V22.5516C90.9088 21.7757 91.538 21.1465 92.3138 21.1465H94.9141V18.0089H89.4169Z" fill="#9D6219"/>
<path d="M0 25.3295V22.4494L5.04026 16.9585H0V14.0784H9.42747V16.9585L4.25251 22.4494H9.42747V25.3295H0Z" fill="#E2DBD5"/>
<path d="M11.2468 22.0213C11.2468 19.9512 12.7098 18.6671 15.4106 18.4659L18.5617 18.2187V18.0396C18.5617 16.9363 17.8864 16.3514 16.6485 16.3514C15.1856 16.3514 14.3978 16.9142 14.3978 17.9271H11.5179C11.5179 15.3846 13.6101 13.7203 16.8293 13.7203C20.0485 13.7203 21.9377 15.5415 21.9377 18.7609V25.3311H18.8771L18.652 23.8459C18.2922 24.881 16.8071 25.6227 15.1191 25.6227C12.7336 25.6227 11.2485 24.2279 11.2485 22.023L11.2468 22.0213ZM18.5821 21.1209V20.5139L16.8276 20.6708C15.3203 20.8055 14.7798 21.1431 14.7798 21.8644C14.7798 22.6744 15.2759 23.0581 16.3314 23.0581C17.6597 23.0581 18.5821 22.405 18.5821 21.1227V21.1209Z" fill="#E2DBD5"/>
<path d="M124.549 13.7169C127.879 13.7169 130.083 15.5381 130.308 18.4864H126.82C126.573 17.3627 125.875 16.8221 124.682 16.8221C123.219 16.8221 122.274 17.9237 122.274 19.6579C122.274 21.3921 123.15 22.5159 124.636 22.5159C125.851 22.5159 126.593 21.9531 126.818 20.8516H130.307C130.082 23.6856 127.787 25.6211 124.636 25.6211C121.08 25.6211 118.785 23.2593 118.785 19.6579C118.785 16.0565 121.171 13.7169 124.545 13.7169H124.549ZM120.678 8.74448H123.289L124.571 11.1062L125.853 8.74448H128.464L126.237 12.704H122.907L120.68 8.74448H120.678Z" fill="#E2DBD5"/>
<path d="M131.959 19.68C131.959 16.169 134.322 13.7169 137.719 13.7169C141.115 13.7169 143.456 16.0343 143.456 19.7022V20.5787L135.287 20.623C135.49 22.1083 136.322 22.8057 137.852 22.8057C139.158 22.8057 140.08 22.3334 140.328 21.5234H143.501C143.097 24.0215 140.868 25.6193 137.785 25.6193C134.387 25.6193 131.957 23.145 131.957 19.6783L131.959 19.68ZM135.333 18.4881H140.014C140.014 17.2961 139.137 16.5322 137.741 16.5322C136.344 16.5322 135.603 17.1392 135.333 18.4881Z" fill="#E2DBD5"/>
<path d="M148.284 21.7741C148.33 22.5619 148.914 23.0342 149.972 23.0342C151.029 23.0342 151.547 22.6506 151.547 22.0657C151.547 21.728 151.366 21.3682 150.534 21.1892L148.464 20.739C146.394 20.2905 145.381 19.3885 145.381 17.4087C145.381 15.0674 147.385 13.7186 150.086 13.7186C152.787 13.7186 154.519 15.2482 154.519 17.5212H151.233C151.233 16.7556 150.761 16.2389 149.927 16.2389C149.139 16.2389 148.645 16.6448 148.645 17.2518C148.645 17.7685 149.073 18.0618 149.859 18.2409L151.951 18.691C153.796 19.0952 154.809 19.9495 154.809 21.7519C154.809 24.1597 152.761 25.6228 149.835 25.6228C146.909 25.6228 144.996 24.0471 144.996 21.7758H148.282L148.284 21.7741Z" fill="#E2DBD5"/>
<path d="M156.615 25.3294V8.36076H160.079V18.1283L163.725 14.0767H168.068L163.837 18.5324L167.933 25.3294H163.928L161.408 21.121L160.079 22.5158V25.3294H156.615Z" fill="#E2DBD5"/>
<path d="M173.812 13.7408C177.39 13.7408 180 16.1264 180 19.6818C180 23.2371 177.39 25.6006 173.812 25.6006C170.235 25.6006 167.602 23.2388 167.602 19.6818C167.602 16.1247 170.213 13.7408 173.812 13.7408ZM173.812 22.4937C175.41 22.4937 176.513 21.3682 176.513 19.6579C176.513 17.9475 175.41 16.8443 173.812 16.8443C172.215 16.8443 171.089 17.9697 171.089 19.6579C171.089 21.3461 172.192 22.4937 173.812 22.4937Z" fill="#E2DBD5"/>
<path d="M237.172 1.44643C229.173 1.44643 222.688 7.91966 222.688 15.9026C222.688 23.8855 229.173 30.3608 237.172 30.3608C245.172 30.3608 251.657 23.8875 251.657 15.9026C251.657 7.91762 245.17 1.44643 237.172 1.44643ZM227.37 17.6734C226.763 17.6734 226.323 17.5306 226.052 17.3388C225.851 17.196 225.749 17.0205 225.749 16.8614C225.749 16.6146 226.037 16.486 226.06 16.5024C226.315 16.8288 226.747 17.0756 227.354 17.0756C227.897 17.0756 228.2 16.8757 228.2 16.5574C228.2 16.1657 227.84 16.0943 227.208 15.9597C226.64 15.8393 225.857 15.6639 225.857 14.8519C225.857 14.1338 226.456 13.6483 227.39 13.6483C228.126 13.6483 228.588 13.8788 228.772 14.1501C228.835 14.2379 228.868 14.3337 228.868 14.4215C228.868 14.6683 228.566 14.8132 228.549 14.7887C228.31 14.4704 227.91 14.246 227.423 14.246C226.879 14.246 226.591 14.4541 226.591 14.7724C226.591 15.1233 226.926 15.2028 227.55 15.3395C228.14 15.468 228.964 15.6435 228.964 16.4718C228.964 17.2062 228.357 17.6754 227.366 17.6754L227.37 17.6734ZM231.515 17.2348C231.515 17.5224 231.372 17.6101 231.163 17.6101H231.084C230.875 17.6101 230.724 17.5224 230.724 17.2348V14.0848C230.724 13.7972 230.875 13.7013 231.084 13.7013H231.163C231.372 13.7013 231.515 13.789 231.515 14.0848V17.2348ZM235.637 14.5622C235.517 14.4663 235.365 14.3949 235.151 14.3949C234.527 14.3949 234.28 15.0008 234.28 15.8863V17.2348C234.28 17.5224 234.129 17.6101 233.929 17.6101H233.841C233.632 17.6101 233.489 17.5224 233.489 17.2348V13.789C233.489 13.7645 233.616 13.7013 233.777 13.7013C233.961 13.7013 234.162 13.7809 234.241 14.0848C234.258 14.1644 234.274 14.2603 234.274 14.3725C234.442 13.9012 234.76 13.6462 235.249 13.6462C235.647 13.6462 235.88 13.838 235.88 14.1562C235.88 14.4745 235.658 14.5785 235.641 14.5622H235.637ZM238.241 17.2348C238.241 17.5224 238.098 17.6101 237.89 17.6101H237.81C237.601 17.6101 237.45 17.5224 237.45 17.2348V14.0848C237.45 13.7972 237.601 13.7013 237.81 13.7013H237.89C238.098 13.7013 238.241 13.789 238.241 14.0848V17.2348ZM243.723 17.5204C243.723 17.5449 243.594 17.6081 243.443 17.6081C243.251 17.6081 243.05 17.5367 242.971 17.249C242.954 17.1776 242.938 17.0981 242.938 17.0022C242.666 17.3939 242.251 17.6713 241.66 17.6713C240.647 17.6713 240.183 16.9859 240.183 16.0291V14.0828C240.183 13.7951 240.326 13.6993 240.526 13.6993H240.614C240.822 13.6993 240.966 13.787 240.966 14.0828V15.9332C240.966 16.5942 241.301 16.9859 241.883 16.9859C242.361 16.9859 242.738 16.7145 242.938 16.3086V14.0828C242.938 13.7951 243.081 13.6993 243.281 13.6993H243.369C243.578 13.6993 243.721 13.787 243.721 14.0828V17.5204H243.723ZM248.403 14.1481C248.466 14.2358 248.499 14.3317 248.499 14.4194C248.499 14.6663 248.197 14.8111 248.18 14.7866C247.941 14.4684 247.541 14.244 247.054 14.244C246.51 14.244 246.224 14.4521 246.224 14.7703C246.224 15.1212 246.56 15.2008 247.183 15.3375C247.774 15.466 248.597 15.6414 248.597 16.4697C248.597 17.2042 247.99 17.6734 246.999 17.6734C246.392 17.6734 245.952 17.5306 245.681 17.3388C245.48 17.196 245.376 17.0205 245.376 16.8614C245.376 16.6146 245.664 16.486 245.687 16.5024C245.942 16.8288 246.374 17.0756 246.981 17.0756C247.524 17.0756 247.827 16.8757 247.827 16.5574C247.827 16.1657 247.467 16.0943 246.835 15.9597C246.269 15.8393 245.487 15.6639 245.487 14.8519C245.487 14.1338 246.085 13.6483 247.019 13.6483C247.755 13.6483 248.217 13.8788 248.401 14.1501L248.403 14.1481Z" fill="white"/>
<path d="M252.378 0C250.379 0 248.757 1.6178 248.757 3.61506C248.757 5.61231 250.377 7.23011 252.378 7.23011C254.379 7.23011 256 5.61231 256 3.61506C256 1.6178 254.379 0 252.378 0Z" fill="white"/>
<path opacity="0.5" d="M201.5 29.3608V5.86076" stroke="white"/>
</svg>
