<svg width="126" height="83" viewBox="0 0 126 83" fill="none" xmlns="http://www.w3.org/2000/svg">
<path d="M0.902016 18.2187V13.937L8.39977 5.7694H0.902016V1.48389H14.9232V5.7656L7.22753 13.9332H14.9232V18.2149H0.902016V18.2187Z" fill="#E2DBD5"/>
<path d="M17.6292 13.2977C17.6292 10.2187 19.8024 8.31191 23.8215 8.01123L28.5067 7.64586V7.37944C28.5067 5.73907 27.5019 4.86751 25.6598 4.86751C23.4866 4.86751 22.3144 5.70482 22.3144 7.20818H18.0327C18.0289 3.42505 21.1421 0.951172 25.9262 0.951172C30.7103 0.951172 33.5229 3.66102 33.5229 8.44512V18.215H28.971L28.6361 16.0076C28.0994 17.5452 25.892 18.6489 23.3839 18.6489C19.8367 18.6489 17.6292 16.5747 17.6292 13.2939V13.2977ZM28.5371 11.958V11.056L25.9262 11.2882C23.6845 11.4899 22.8815 11.9923 22.8815 13.0617C22.8815 14.2644 23.6198 14.8353 25.1917 14.8353C27.167 14.8353 28.5371 13.8648 28.5371 11.958Z" fill="#E2DBD5"/>
<path d="M0.902016 50.387V25.1572H6.05529V35.597C7.06007 34.0936 9.26753 33.0889 11.6767 33.0889C16.3618 33.0889 19.3381 36.735 19.3381 42.1889C19.3381 47.6429 16.0269 50.8208 11.2733 50.8208C8.9326 50.8208 6.92305 49.7818 6.02104 48.2442L5.75462 50.387H0.902016ZM10.1733 46.1053C12.6168 46.1053 14.1544 44.3964 14.1544 41.9225C14.1544 39.4486 12.6168 37.7397 10.1733 37.7397C7.72992 37.7397 6.08955 39.4106 6.08955 41.9225C6.08955 44.4344 7.76417 46.1053 10.1733 46.1053Z" fill="#E2DBD5"/>
<path d="M31.03 33.1533C36.3508 33.1533 40.2329 36.7005 40.2329 41.987C40.2329 47.2734 36.3508 50.7864 31.03 50.7864C25.7093 50.7864 21.793 47.2734 21.793 41.987C21.793 36.7005 25.675 33.1533 31.03 33.1533ZM31.03 46.1697C33.405 46.1697 35.0453 44.4951 35.0453 41.9527C35.0453 39.4103 33.405 37.77 31.03 37.77C28.6551 37.77 26.9805 39.4446 26.9805 41.9527C26.9805 44.4608 28.6209 46.1697 31.03 46.1697Z" fill="#E2DBD5"/>
<path d="M42.9161 50.387V25.1572H48.1036V35.3991C49.1426 33.9604 51.0494 33.1231 53.2226 33.1231C57.2036 33.1231 59.5139 35.6655 59.5139 40.05V50.3908H54.3606V41.2869C54.3606 39.1784 53.1884 37.8083 51.4148 37.8083C49.3748 37.8083 48.0693 39.148 48.0693 41.2222V50.3908H42.9161V50.387Z" fill="#E2DBD5"/>
<path d="M62.1971 45.4657C62.1971 42.3867 64.3703 40.4799 68.3894 40.1792L73.0745 39.8138V39.5474C73.0745 37.907 72.0697 37.0355 70.2277 37.0355C68.0544 37.0355 66.8822 37.8728 66.8822 39.3761H62.6005C62.6005 35.5968 65.7138 33.1191 70.4979 33.1191C75.282 33.1191 78.0946 35.829 78.0946 40.6131V50.383H73.5426L73.2077 48.1755C72.6711 49.7131 70.4636 50.8169 67.9555 50.8169C64.4083 50.8169 62.2009 48.7426 62.2009 45.4619L62.1971 45.4657ZM73.1088 44.1298V43.2278L70.4979 43.4599C68.2562 43.6617 67.4531 44.1641 67.4531 45.2335C67.4531 46.4362 68.1877 47.0071 69.7633 47.0071C71.7386 47.0071 73.1088 46.0366 73.1088 44.1298Z" fill="#E2DBD5"/>
<path d="M104.938 45.1003C105.007 46.2725 105.874 46.9766 107.446 46.9766C109.018 46.9766 109.791 46.4057 109.791 45.538C109.791 45.0356 109.524 44.4989 108.283 44.2325L105.204 43.5627C102.125 42.8966 100.618 41.5531 100.618 38.6111C100.618 35.1287 103.598 33.1229 107.614 33.1229C111.629 33.1229 114.206 35.3989 114.206 38.7786H109.319C109.319 37.6406 108.615 36.8718 107.378 36.8718C106.205 36.8718 105.471 37.4769 105.471 38.379C105.471 39.1478 106.106 39.5816 107.279 39.8519L110.392 40.5217C113.136 41.1231 114.643 42.3942 114.643 45.0736C114.643 48.6551 111.598 50.8283 107.248 50.8283C102.898 50.8283 100.051 48.4876 100.051 45.1079H104.938V45.1003ZM101.859 25.7241H105.741L107.648 29.237L109.555 25.7241H113.437L110.126 31.6119H105.174L101.863 25.7241H101.859Z" fill="#E2DBD5"/>
<path d="M116.946 33.6563H122.099V50.3873H116.946V33.6563ZM121.395 31.6125H117.68L120.489 26.0596H125.106L121.391 31.6125H121.395Z" fill="#E2DBD5"/>
<path d="M8.56723 65.2905C13.5188 65.2905 16.7995 68.0003 17.1345 72.3848H11.9469C11.5815 70.714 10.5425 69.9109 8.76894 69.9109C6.59574 69.9109 5.18753 71.5475 5.18753 74.128C5.18753 76.7084 6.49298 78.3792 8.70043 78.3792C10.5083 78.3792 11.612 77.5419 11.9469 75.9053H17.1345C16.7995 80.1185 13.3856 82.9997 8.70043 82.9997C3.41395 82.9997 0 79.4867 0 74.1318C0 68.7768 3.54716 65.2981 8.56723 65.2981V65.2905ZM2.8088 57.8955H6.69089L8.59767 61.4084L10.5045 57.8955H14.3865L11.0754 63.7833H6.1238L2.81261 57.8955H2.8088Z" fill="#E2DBD5"/>
<path d="M19.5855 74.1594C19.5855 68.9376 23.0984 65.2915 28.1527 65.2915C33.207 65.2915 36.6857 68.7359 36.6857 74.1937V75.4991L24.5371 75.5676C24.8377 77.7751 26.0747 78.8141 28.3506 78.8141C30.2917 78.8141 31.6656 78.1138 32.031 76.9073H36.7504C36.1491 80.6219 32.8341 82.9969 28.2517 82.9969C23.2012 82.9969 19.5855 79.3165 19.5855 74.1632V74.1594ZM24.6056 72.382H31.5667C31.5667 70.6084 30.2612 69.4743 28.187 69.4743C26.1127 69.4743 25.009 70.3763 24.6056 72.382Z" fill="#E2DBD5"/>
<path d="M43.8637 77.2689C43.9322 78.4411 44.8 79.1452 46.3757 79.1452C47.9513 79.1452 48.7201 78.5743 48.7201 77.7066C48.7201 77.2042 48.4537 76.6675 47.213 76.4011L44.134 75.7313C41.0549 75.0652 39.5478 73.7217 39.5478 70.7797C39.5478 67.2972 42.5278 65.2915 46.5431 65.2915C50.5584 65.2915 53.1351 67.5675 53.1351 70.9472H48.2482C48.2482 69.8092 47.5441 69.0404 46.3072 69.0404C45.1349 69.0404 44.4004 69.6455 44.4004 70.5475C44.4004 71.3163 45.036 71.7502 46.2082 72.0204L49.3215 72.6903C52.0656 73.2916 53.5728 74.5628 53.5728 77.2422C53.5728 80.8236 50.528 82.9969 46.1778 82.9969C41.8275 82.9969 38.9807 80.6562 38.9807 77.2765H43.8675L43.8637 77.2689Z" fill="#E2DBD5"/>
<path d="M56.2521 82.5583V57.3247H61.4054V71.8483L66.8251 65.8234H73.2838L66.9926 72.4496L73.0821 82.5583H67.1258L63.3769 76.3012L61.4016 78.3755V82.5583H56.2483H56.2521Z" fill="#E2DBD5"/>
<path d="M81.8282 65.3257C87.149 65.3257 91.0311 68.8728 91.0311 74.1593C91.0311 79.4458 87.149 82.9587 81.8282 82.9587C76.5075 82.9587 72.5912 79.4458 72.5912 74.1593C72.5912 68.8728 76.4732 65.3257 81.8282 65.3257ZM81.8282 78.3421C84.2032 78.3421 85.8435 76.6675 85.8435 74.1251C85.8435 71.5827 84.2032 69.9423 81.8282 69.9423C79.4533 69.9423 77.7787 71.6169 77.7787 74.1251C77.7787 76.6332 79.4191 78.3421 81.8282 78.3421Z" fill="#E2DBD5"/>
<path d="M89.6913 39.5017C90.993 39.0755 91.9407 37.77 91.9407 36.339V33.2676H86.7341V37.4085C86.7341 38.5617 85.7978 39.4979 84.6446 39.4979H80.7778V44.1641H88.953C87.6513 44.5903 86.7037 45.8958 86.7037 47.3268V50.3982H91.9102V46.2573C91.9102 45.1041 92.8465 44.1679 93.9997 44.1679H97.8666V39.5017H89.6913Z" fill="#9D6219"/>
</svg>
