<svg width="68" height="68" viewBox="0 0 68 68" fill="none" xmlns="http://www.w3.org/2000/svg">
<path d="M11.1033 29.7436C13.077 29.7436 14.6769 28.1467 14.6769 26.177C14.6769 24.2072 13.077 22.6104 11.1033 22.6104C9.12968 22.6104 7.52972 24.2072 7.52972 26.177C7.52972 28.1467 9.12968 29.7436 11.1033 29.7436Z" fill="#9D6219"/>
<path d="M25.8399 16.4254C27.8135 16.4254 29.4135 14.8286 29.4135 12.8588C29.4135 10.8891 27.8135 9.29224 25.8399 9.29224C23.8662 9.29224 22.2663 10.8891 22.2663 12.8588C22.2663 14.8286 23.8662 16.4254 25.8399 16.4254Z" fill="#9D6219"/>
<path d="M41.5267 27.4057C43.5003 27.4057 45.1002 25.8088 45.1002 23.8391C45.1002 21.8693 43.5003 20.2725 41.5267 20.2725C39.553 20.2725 37.9531 21.8693 37.9531 23.8391C37.9531 25.8088 39.553 27.4057 41.5267 27.4057Z" fill="#9D6219"/>
<path d="M54.2434 13.1332C56.217 13.1332 57.817 11.5364 57.817 9.5666C57.817 7.59682 56.217 6 54.2434 6C52.2698 6 50.6698 7.59682 50.6698 9.5666C50.6698 11.5364 52.2698 13.1332 54.2434 13.1332Z" fill="#9D6219"/>
<path d="M7.35645 62.3917V41.8032H17.7187V62.3917" stroke="#9D6219" stroke-width="2" stroke-miterlimit="10"/>
<path d="M21.4894 62.3917V27.5129H31.8576V62.3917" stroke="#9D6219" stroke-width="2" stroke-miterlimit="10"/>
<path d="M35.9392 62.3916V37.5864H46.3014V62.3916" stroke="#9D6219" stroke-width="2" stroke-miterlimit="10"/>
<path d="M50.2814 62.3917V23.5408H60.6496V62.3917" stroke="#9D6219" stroke-width="2" stroke-miterlimit="10"/>
<path d="M3 62.4036H65" stroke="#9D6219" stroke-width="2" stroke-miterlimit="10"/>
<path d="M11.1033 26.177L25.8399 12.8589L41.5267 23.839L54.2434 9.56665" stroke="#9D6219" stroke-width="2" stroke-miterlimit="10"/>
</svg>
